<?xml version="1.0" standalone="no"?>
<!DOCTYPE svg PUBLIC "-//W3C//DTD SVG 20010904//EN"
 "http://www.w3.org/TR/2001/REC-SVG-20010904/DTD/svg10.dtd">
<svg version="1.0" xmlns="http://www.w3.org/2000/svg"
 width="700.000000pt" height="700.000000pt" viewBox="0 0 700.000000 700.000000"
 preserveAspectRatio="xMidYMid meet">
<metadata>
Created by potrace 1.11, written by Peter Selinger 2001-2013
</metadata>
<g transform="translate(0.000000,700.000000) scale(0.100000,-0.100000)"
fill="#000000" stroke="none">
<path d="M3220 6879 c-1044 -91 -1970 -640 -2547 -1509 -460 -693 -647 -1531
-527 -2360 138 -952 677 -1801 1484 -2337 693 -460 1531 -647 2360 -527 492
71 965 252 1380 527 1098 729 1673 2013 1484 3317 -71 492 -252 965 -527 1380
-636 958 -1703 1527 -2847 1519 -91 -1 -208 -5 -260 -10z m-747 -1654 c54 -9
150 -31 212 -50 114 -35 289 -105 308 -124 6 -6 -8 -31 -40 -73 -125 -157
-288 -446 -353 -625 -12 -35 -26 -63 -29 -63 -4 0 -34 11 -67 24 -167 68 -408
75 -584 18 -124 -41 -233 -106 -327 -195 -186 -177 -276 -384 -276 -637 0
-250 90 -459 272 -633 97 -92 205 -157 331 -199 176 -57 417 -50 584 18 33 13
63 24 67 24 3 0 17 -28 29 -62 65 -180 228 -469 353 -626 32 -42 46 -67 40
-73 -19 -19 -194 -89 -308 -124 -173 -52 -292 -69 -495 -69 -185 0 -276 11
-430 49 -204 52 -416 150 -590 273 -174 124 -369 334 -481 522 -331 551 -331
1249 0 1800 74 123 158 229 276 345 295 293 649 455 1090 499 77 8 321 -3 418
-19z m2598 5 c264 -40 538 -151 759 -308 174 -124 369 -334 481 -522 331 -551
331 -1249 0 -1800 -74 -123 -158 -229 -276 -345 -264 -262 -593 -426 -970
-486 -118 -19 -408 -16 -533 4 -715 120 -1289 670 -1432 1375 -150 739 185
1483 839 1866 207 122 475 206 731 230 72 6 320 -2 401 -14z"/>
<path d="M4670 4364 c-174 -35 -326 -109 -450 -221 -108 -97 -200 -245 -246
-398 -25 -82 -28 -104 -28 -245 0 -141 3 -163 28 -245 77 -252 241 -440 479
-550 129 -60 183 -70 367 -69 158 0 169 1 260 32 127 42 235 107 331 199 182
174 272 383 272 633 0 253 -90 460 -276 637 -94 89 -203 154 -327 195 -86 28
-109 31 -240 34 -80 1 -156 0 -170 -2z"/>
</g>
</svg>
